<svg width="80" height="79" viewBox="0 0 80 79" fill="none" xmlns="http://www.w3.org/2000/svg">
<g clip-path="url(#clip0_15_85)">
<path d="M0.5 63.6389C0.5 67.2734 3.44878 70.2222 7.08333 70.2222H72.9167C76.5512 70.2222 79.5 67.2734 79.5 63.6389V39.5H0.5V63.6389ZM26.8333 54.3125C26.8333 53.4073 27.574 52.6667 28.4792 52.6667H47.1319C48.0372 52.6667 48.7778 53.4073 48.7778 54.3125V59.7986C48.7778 60.7038 48.0372 61.4444 47.1319 61.4444H28.4792C27.574 61.4444 26.8333 60.7038 26.8333 59.7986V54.3125ZM9.27778 54.3125C9.27778 53.4073 10.0184 52.6667 10.9236 52.6667H20.7986C21.7038 52.6667 22.4444 53.4073 22.4444 54.3125V59.7986C22.4444 60.7038 21.7038 61.4444 20.7986 61.4444H10.9236C10.0184 61.4444 9.27778 60.7038 9.27778 59.7986V54.3125ZM79.5 15.3611V21.9444H0.5V15.3611C0.5 11.7266 3.44878 8.77777 7.08333 8.77777H72.9167C76.5512 8.77777 79.5 11.7266 79.5 15.3611Z" fill="white"/>
</g>
<defs>
<clipPath id="clip0_15_85">
<rect width="79" height="79" fill="white" transform="translate(0.5)"/>
</clipPath>
</defs>
</svg>
